# xmcd
#
# Track frame offsets: 
#        150
#        23509
#        40210
#        54060
#
# Disc length: 1018 seconds
#
# Revision: 0
# Processed by: cddbd v1.5.2PL0 Copyright (c) Steve Scherf et al.
# Submitted via: ExactAudioCopy v0.99pb5
#
DISCID=2003f804
DTITLE=Cadillac Sky - Weary Angel EP
DYEAR=2010
DGENRE=Bluegrass
TTITLE0=Weary Angel
TTITLE1=I Will Follow You into the Dark
TTITLE2=Video Killed the Radio Star
TTITLE3=Weary Angel (Reprise)
EXTD=
EXTT0=
EXTT1=
EXTT2=
EXTT3=
PLAYORDER=
